<svg width="29" height="23" viewBox="0 0 29 23" fill="none" xmlns="http://www.w3.org/2000/svg">
<path d="M5.19485 16.9203H5.65352V19.4143C5.65352 20.15 6.02619 20.6182 6.69508 20.6182C7.16331 20.6182 7.4882 20.3699 8.07109 19.8634L11.3678 16.9203H17.5025C20.3501 16.9203 21.879 15.3531 21.879 12.5533V5.22414C21.879 2.42434 20.3501 0.847656 17.5025 0.847656L5.19485 0.847656C2.34726 0.847656 0.818359 2.42434 0.818359 5.22414L0.818359 12.5533C0.818359 15.3531 2.34726 16.9203 5.19485 16.9203ZM5.19485 15.3818C3.2646 15.3818 2.35682 14.4071 2.35682 12.5438V5.2337C2.35682 3.37035 3.2646 2.38612 5.19485 2.38612L17.5025 2.38612C19.4232 2.38612 20.3405 3.37035 20.3405 5.2337V12.5438C20.3405 14.4071 19.4232 15.3818 17.5025 15.3818H11.3105C10.7753 15.3818 10.5078 15.4678 10.1447 15.8405L7.08686 18.8696L7.08686 16.108C7.08686 15.5825 6.8862 15.3818 6.37019 15.3818H5.19485Z" fill="white"/>
<path d="M15.19 19.2218H18.2861L21.4776 21.9547C22.0605 22.4516 22.3759 22.7096 22.8345 22.7096C23.4939 22.7096 23.8665 22.2413 23.8665 21.5151V19.2218H24.0672C26.8192 19.2218 28.2621 17.7407 28.2621 15.0364V9.86684C28.2621 7.153 26.8192 5.67188 24.0672 5.67188H15.19C12.438 5.67188 10.9951 7.153 10.9951 9.86684V15.0364C10.9951 17.7502 12.438 19.2218 15.19 19.2218ZM15.2187 17.6833C13.3458 17.6833 12.5431 16.8042 12.5431 15.0173V9.88592C12.5431 8.09902 13.3458 7.21033 15.2187 7.21033H24.0481C25.9114 7.21033 26.7237 8.09902 26.7237 9.88592V15.0077C26.7237 16.8042 25.9114 17.6833 24.0481 17.6833H23.169C22.7581 17.6833 22.4332 17.9318 22.4332 18.4669V20.9704L19.2034 18.0847C18.8881 17.7884 18.6205 17.6833 18.2287 17.6833H15.2187Z" fill="white"/>
</svg>
