<svg width="27" height="27" viewBox="0 0 27 27" fill="none" xmlns="http://www.w3.org/2000/svg">
<path d="M7.31934 26.2461C7.77637 26.2461 8.11621 26.0117 8.66699 25.4961L12.8975 21.6289H20.8193C24.3115 21.6289 26.1865 19.7071 26.1865 16.2735V7.29688C26.1865 3.86329 24.3115 1.92969 20.8193 1.92969H5.72559C2.2334 1.92969 0.358398 3.85157 0.358398 7.29688V16.2735C0.358398 19.7188 2.2334 21.6289 5.72559 21.6289H6.27637V25.0391C6.27637 25.7656 6.65137 26.2461 7.31934 26.2461Z" fill="white"/>
<path d="M13.2842 13.9532C12.6748 13.9532 12.335 13.6133 12.3232 12.9922L12.1709 6.61718C12.1592 5.99609 12.6162 5.53906 13.2725 5.53906C13.917 5.53906 14.3975 6.00781 14.3857 6.6289L14.21 12.9922C14.1982 13.625 13.8584 13.9532 13.2842 13.9532ZM13.2842 17.8789C12.5811 17.8789 11.9717 17.3282 11.9717 16.625C11.9717 15.9336 12.5693 15.3711 13.2842 15.3711C13.9873 15.3711 14.585 15.9219 14.585 16.625C14.585 17.3399 13.9756 17.8789 13.2842 17.8789Z" fill="#1D9BF0"/>
</svg>
