<svg width="36" height="31" viewBox="0 0 36 31" fill="none" xmlns="http://www.w3.org/2000/svg">
<path d="M6.04883 22.0214H6.61133V25.08C6.61133 25.9824 7.08008 26.5566 7.88867 26.5566C8.47461 26.5566 8.87305 26.2519 9.57617 25.6308L13.6308 22.0214H21.1425C24.6347 22.0214 26.5097 20.0996 26.5097 16.666V7.67773C26.5097 4.24414 24.6347 2.31055 21.1425 2.31055H6.04883C2.56836 2.31055 0.681641 4.24414 0.681641 7.67773V16.666C0.681641 20.0996 2.56836 22.0214 6.04883 22.0214Z" fill="white"/>
<path d="M18.3184 26.4511H21.5176L24.9864 29.4043C25.9825 30.2714 26.6505 30.7168 27.6934 30.7168C29.3575 30.7168 30.5528 29.4746 30.5528 27.6582V26.3339H30.5762C33.9981 25.8418 35.9434 23.4277 35.9434 19.7128V13.373C35.9434 9.17773 33.4708 6.63477 29.1934 6.63477H18.3184C14.0294 6.63477 11.5684 9.17773 11.5684 13.373V19.7128C11.5684 23.9082 14.0294 26.4511 18.3184 26.4511Z" fill="#1D9BF0"/>
<path d="M18.3183 24.8457H22.1035L26.0175 28.1972C26.7324 28.8066 27.1191 29.123 27.6933 29.123C28.5019 29.123 28.9589 28.5488 28.9589 27.6582V24.8457H29.1933C32.5683 24.8457 34.3378 23.0293 34.3378 19.7128V13.373C34.3378 10.0449 32.5683 8.22852 29.1933 8.22852H18.3183C14.9433 8.22852 13.1738 10.0449 13.1738 13.373V19.7128C13.1738 23.041 14.9433 24.8457 18.3183 24.8457Z" fill="white"/>
<path d="M23.7558 17.8379C23.2285 17.8379 22.9472 17.545 22.9355 17.0059L22.7949 13.1739C22.7714 12.5997 23.1816 12.2012 23.7441 12.2012C24.3066 12.2012 24.7285 12.6114 24.705 13.1856L24.5644 17.0059C24.541 17.5567 24.2597 17.8379 23.7558 17.8379ZM23.7441 21.1778C23.1464 21.1778 22.6191 20.6856 22.6191 20.0879C22.6191 19.4903 23.1347 18.9981 23.7441 18.9981C24.3652 18.9981 24.8808 19.4786 24.8808 20.0879C24.8808 20.6973 24.3535 21.1778 23.7441 21.1778Z" fill="#1D9BF0"/>
</svg>
