<svg width="34" height="23" viewBox="0 0 34 23" fill="none" xmlns="http://www.w3.org/2000/svg">
<path d="M7.31934 22.3088L25.3018 22.3088C29.9562 22.3088 33.561 18.7868 33.561 14.2843C33.561 9.74038 29.8733 6.31515 24.8598 6.31515C23.0229 2.66895 19.6529 0.445312 15.551 0.445312C10.1921 0.445312 5.66197 4.60254 5.17857 10.1133C2.41629 10.9005 0.551758 13.2208 0.551758 16.1626C0.551758 19.5603 3.024 22.3088 7.31934 22.3088ZM7.29171 20.0851C4.46038 20.0851 2.77539 18.5521 2.77539 16.2317C2.77539 14.2428 4.04603 12.8065 6.28348 12.2126C7.05692 12.0192 7.34695 11.6602 7.4022 10.8591C7.73368 6.17704 11.2418 2.66895 15.551 2.66895C18.8795 2.66895 21.4484 4.51967 22.9953 7.69628C23.3267 8.37304 23.7273 8.60784 24.5697 8.60784C28.8927 8.60784 31.3236 11.2182 31.3236 14.3396C31.3236 17.5576 28.7546 20.0851 25.4537 20.0851L7.29171 20.0851Z" fill="white"/>
</svg>
