<svg width="14" height="14" viewBox="0 0 14 14" fill="none" xmlns="http://www.w3.org/2000/svg">
<g clip-path="url(#clip0_1655_251)">
<path d="M13.5602 4.55547C13.6477 4.79336 13.5739 5.05859 13.3852 5.22813L12.2012 6.30547C12.2313 6.53242 12.2477 6.76484 12.2477 7C12.2477 7.23516 12.2313 7.46758 12.2012 7.69453L13.3852 8.77188C13.5739 8.94141 13.6477 9.20664 13.5602 9.44453C13.4399 9.76992 13.295 10.0816 13.1282 10.3824L12.9997 10.6039C12.8192 10.9047 12.6169 11.1891 12.3954 11.457C12.234 11.6539 11.9661 11.7195 11.7254 11.643L10.2024 11.159C9.83599 11.4406 9.43131 11.6758 8.99928 11.8535L8.65748 13.4148C8.60279 13.6637 8.41138 13.8605 8.15982 13.9016C7.78248 13.9645 7.3942 13.9973 6.99771 13.9973C6.60123 13.9973 6.21295 13.9645 5.8356 13.9016C5.58404 13.8605 5.39263 13.6637 5.33795 13.4148L4.99615 11.8535C4.56412 11.6758 4.15943 11.4406 3.79302 11.159L2.27271 11.6457C2.03209 11.7223 1.76412 11.6539 1.60279 11.4598C1.38131 11.1918 1.17896 10.9074 0.998493 10.6066L0.869978 10.3852C0.703181 10.0844 0.558259 9.77266 0.437946 9.44727C0.350446 9.20938 0.424275 8.94414 0.612946 8.77461L1.79693 7.69727C1.76685 7.46758 1.75045 7.23516 1.75045 7C1.75045 6.76484 1.76685 6.53242 1.79693 6.30547L0.612946 5.22813C0.424275 5.05859 0.350446 4.79336 0.437946 4.55547C0.558259 4.23008 0.703181 3.91836 0.869978 3.61758L0.998493 3.39609C1.17896 3.09531 1.38131 2.81094 1.60279 2.54297C1.76412 2.34609 2.03209 2.28047 2.27271 2.35703L3.79576 2.84102C4.16217 2.55938 4.56685 2.32422 4.99888 2.14648L5.34068 0.585156C5.39537 0.336328 5.58677 0.139453 5.83834 0.0984375C6.21568 0.0328125 6.60396 0 7.00045 0C7.39693 0 7.78521 0.0328125 8.16256 0.0957031C8.41412 0.136719 8.60553 0.333594 8.66021 0.582422L9.00201 2.14375C9.43404 2.32148 9.83873 2.55664 10.2051 2.83828L11.7282 2.3543C11.9688 2.27773 12.2368 2.34609 12.3981 2.54023C12.6196 2.8082 12.8219 3.09258 13.0024 3.39336L13.1309 3.61484C13.2977 3.91563 13.4426 4.22734 13.5629 4.55273L13.5602 4.55547ZM7.00045 9.1875C7.58061 9.1875 8.13701 8.95703 8.54724 8.5468C8.95748 8.13656 9.18795 7.58016 9.18795 7C9.18795 6.41984 8.95748 5.86344 8.54724 5.4532C8.13701 5.04297 7.58061 4.8125 7.00045 4.8125C6.42029 4.8125 5.86389 5.04297 5.45365 5.4532C5.04341 5.86344 4.81295 6.41984 4.81295 7C4.81295 7.58016 5.04341 8.13656 5.45365 8.5468C5.86389 8.95703 6.42029 9.1875 7.00045 9.1875Z" fill="#ACACAC"/>
</g>
<defs>
<clipPath id="clip0_1655_251">
<rect width="14" height="14" fill="white"/>
</clipPath>
</defs>
</svg>
