<svg width="20" height="55" viewBox="0 0 20 55" fill="none" xmlns="http://www.w3.org/2000/svg">
<path fill-rule="evenodd" clip-rule="evenodd" d="M7.222 27.2167C9.522 20.8724 11.77 14.6794 13.966 8.64319C14.0809 8.3109 14.145 7.86982 14.145 7.41119C14.145 6.95257 14.0809 6.51149 13.966 6.17919C13.655 5.2277 13.163 5.3102 12.939 5.9592C10.663 12.2347 8.282 18.7934 5.796 25.6382C5.599 26.0837 5.5 26.6117 5.5 27.2167C5.5 27.8244 5.599 28.3662 5.796 28.8447L13.279 48.9362C13.4225 49.2993 13.6119 49.4941 13.8069 49.4793C14.0019 49.4644 14.187 49.2409 14.323 48.8564C14.681 47.8692 14.543 46.8957 14.381 46.4337C11.9909 40.0377 9.60525 33.632 7.222 27.2167Z" fill="#949494"/>
</svg>
