<svg width="123" height="123" viewBox="0 0 123 123" fill="none" xmlns="http://www.w3.org/2000/svg">
<g id="Group">
<g id="Group_2">
<g id="Group_3">
<path id="Vector" d="M102.705 16.8982H22.3145C18.0858 16.8982 14.6582 20.3261 14.6582 24.5544V104.945C14.6582 109.174 18.0858 112.601 22.3145 112.601H102.705C106.933 112.601 110.361 109.174 110.361 104.945V24.5544C110.361 20.3261 106.933 16.8982 102.705 16.8982Z" fill="#EBEBEB"/>
</g>
</g>
<g id="Group_4">
<g id="Group_5">
<path id="Vector_2" d="M79.6821 90.2699L66.9855 77.5733C64.3902 74.9781 64.3902 70.7704 66.9855 68.1755L68.1762 66.9848C70.7715 64.3895 74.9791 64.3895 77.5744 66.9848L90.2706 79.6814L79.6821 90.2699Z" fill="#8896A3"/>
</g>
<g id="Group_6">
<path id="Vector_3" d="M103.053 119.163L76.1172 92.2278L92.2284 76.1169L119.164 103.052C123.613 107.501 123.613 114.714 119.164 119.163C114.715 123.612 107.502 123.612 103.053 119.163Z" fill="#1D9BF0"/>
</g>
<g id="Group_7">
<path id="Vector_4" d="M43.6699 0C54.8465 0 66.0223 4.26335 74.5497 12.7908C91.6042 29.8452 91.6042 57.4959 74.5497 74.55C57.4953 91.6045 29.8453 91.6045 12.7908 74.55C-4.26361 57.4959 -4.26361 29.8452 12.7908 12.7908C21.3179 4.2637 32.4937 0 43.6699 0Z" fill="#1D9BF0"/>
</g>
<g id="Group_8">
<path id="Vector_5" d="M110.405 94.2944L94.2939 110.406L99.7074 115.819L115.818 99.7075L110.405 94.2944Z" fill="#1179BE"/>
</g>
</g>
<g id="Group_9">
<g id="Group_10">
<path id="Vector_6" d="M65.8235 65.823C53.589 78.0575 33.7526 78.0575 21.5177 65.823C9.28316 53.5885 9.28316 33.7521 21.5177 21.5172C33.7526 9.28268 53.589 9.28268 65.8235 21.5172C78.058 33.7521 78.058 53.5885 65.8235 65.823Z" fill="white"/>
</g>
</g>
</g>
</svg>
