<svg width="13" height="18" viewBox="0 0 13 18" fill="none" xmlns="http://www.w3.org/2000/svg">
<path d="M2.68122 17.3644L10.3403 17.3644C11.5707 17.3644 12.2236 16.6948 12.2236 15.3722L12.2236 9.60491C12.2236 8.28233 11.5707 7.62109 10.3403 7.62109L2.68122 7.62109C1.45075 7.62109 0.797852 8.28233 0.797852 9.60491L0.797852 15.3722C0.797852 16.6948 1.45075 17.3644 2.68122 17.3644ZM2.26269 8.26562H3.59361L3.59361 5.43639C3.59361 3.32701 4.94127 2.20536 6.50656 2.20536C8.07185 2.20536 9.43628 3.32701 9.43628 5.43639V8.26562L10.7588 8.26562V5.62053C10.7588 2.47321 8.69964 0.941406 6.50656 0.941406C4.32184 0.941406 2.26269 2.47321 2.26269 5.62053L2.26269 8.26562Z" fill="white"/>
</svg>
