<svg viewBox="0 0 36 36" fill="none" xmlns="http://www.w3.org/2000/svg">
<circle cx="18" cy="18" r="17" fill="#F57D31" stroke="#B03C1A" stroke-width="2"/>
<path d="M9.92055 17.5721C10.0864 17.2541 10.4733 17.1325 10.8243 17.2348C13.4367 18.2733 16.3556 18.2588 18.9398 17.1802C21.524 16.1015 23.5799 14.0199 24.6822 11.4407C24.8811 11.0592 25.268 10.9376 25.6192 11.0395C26.0007 11.2385 26.1224 11.6253 26.0202 11.9765C24.7826 14.9704 22.4668 17.2402 19.526 18.5375C16.6185 19.7709 13.2822 19.8103 10.3188 18.6695C9.90419 18.5341 9.78243 18.1472 9.91776 17.7326C9.88745 17.6356 9.92055 17.5721 9.92055 17.5721Z" fill="#B03C1A"/>
<path d="M10.1976 12.5416C10.5624 11.8421 11.2146 11.2117 12.0216 10.9046C13.6689 10.2271 15.4877 10.7714 16.4888 12.2635C16.7072 12.62 16.6354 13.0678 16.2789 13.2864C15.9223 13.505 15.4746 13.433 15.2562 13.0765C14.6616 12.2005 13.5448 11.8608 12.6078 12.2619C11.671 12.6627 11.1073 13.7438 11.315 14.7414C11.4366 15.1285 11.141 15.5404 10.7871 15.5985C10.4333 15.6566 9.98826 15.4245 9.93008 15.0709C9.68951 14.1364 9.79978 13.3046 10.1976 12.5416Z" fill="#B03C1A"/>
<path d="M17.4671 9.45781C17.8319 8.75828 18.4841 8.12789 19.2909 7.82118C20.9383 7.14335 22.7571 7.68765 23.7581 9.18006C23.9765 9.53657 23.8412 9.95123 23.5484 10.2026C23.1918 10.4212 22.7441 10.3492 22.5256 9.99271C21.9311 9.11672 20.8143 8.77699 19.8773 9.17814C18.9405 9.57896 18.3768 10.66 18.5843 11.6579C18.706 12.0448 18.4104 12.4566 18.0566 12.5147C17.6697 12.6363 17.2577 12.3408 17.1996 11.9871C16.9588 11.053 17.0692 10.2208 17.4671 9.45781Z" fill="#B03C1A"/>
</svg>
