<svg viewBox="0 0 36 36" fill="none" xmlns="http://www.w3.org/2000/svg">
<circle cx="18" cy="18" r="17" fill="#80D2F2" stroke="#06A6FF" stroke-width="2"/>
<path d="M9.92055 18.5721C10.0864 18.2541 10.4733 18.1325 10.8243 18.2348C13.4367 19.2733 16.3556 19.2588 18.9398 18.1802C21.524 17.1015 23.5799 15.0199 24.6822 12.4407C24.8811 12.0592 25.268 11.9376 25.6192 12.0395C26.0007 12.2385 26.1224 12.6253 26.0202 12.9765C24.7826 15.9704 22.4668 18.2402 19.526 19.5375C16.6185 20.7709 13.2822 20.8103 10.3188 19.6695C9.90419 19.5341 9.78243 19.1472 9.91776 18.7326C9.88745 18.6356 9.92055 18.5721 9.92055 18.5721Z" fill="#06A6FF"/>
<path d="M15.5099 11.9249C15.5389 12.0006 15.5679 12.0763 15.5212 12.181C15.5885 13.7174 14.6782 15.194 13.1643 15.7735C11.726 16.3239 10.0158 15.937 8.96438 14.7773C8.66811 14.4568 8.72138 13.9156 9.04195 13.6194C9.36248 13.3231 9.9036 13.3764 10.1998 13.6969C10.7923 14.338 11.7521 14.5782 12.5848 14.2595C13.4175 13.9408 13.9717 13.1212 13.8801 12.2016C13.8866 11.7652 14.2539 11.3642 14.6903 11.3707C15.1268 11.3773 15.3651 11.5464 15.5099 11.9249Z" fill="#06A6FF"/>
<path d="M23.173 8.81803C23.202 8.89372 23.231 8.96941 23.1844 9.07406C23.2517 10.6105 22.3413 12.0871 20.8275 12.6665C19.389 13.2171 17.6789 12.8301 16.6275 11.6704C16.3312 11.3499 16.3845 10.8087 16.705 10.5125C17.0256 10.2162 17.5668 10.2694 17.8628 10.5901C18.4556 11.2311 19.4153 11.4713 20.2481 11.1525C21.0806 10.8339 21.6346 10.0143 21.543 9.09475C21.5497 8.65824 21.917 8.25731 22.3535 8.26381C22.7142 8.29937 23.0572 8.51524 23.173 8.81803Z" fill="#06A6FF"/>
</svg>
