<svg width="36" height="36" viewBox="0 0 36 36" fill="none" xmlns="http://www.w3.org/2000/svg">
<circle cx="18" cy="18" r="17" fill="#999999" fill-opacity="0.6" stroke="#999999" stroke-width="2"/>
<path d="M9.92055 18.5714C10.0864 18.2534 10.4733 18.1318 10.8243 18.2341C13.4367 19.2725 16.3556 19.2581 18.9398 18.1794C21.524 17.1008 23.5799 15.0192 24.6822 12.4399C24.8811 12.0584 25.268 11.9368 25.6192 12.0388C26.0007 12.2377 26.1224 12.6246 26.0202 12.9757C24.7826 15.9697 22.4668 18.2395 19.526 19.5367C16.6185 20.7701 13.2822 20.8096 10.3188 19.6688C9.90419 19.5334 9.78243 19.1465 9.91776 18.7318C9.88745 18.6349 9.92055 18.5714 9.92055 18.5714Z" fill="#999999"/>
<path d="M15.5109 11.9249C15.5399 12.0006 15.5689 12.0763 15.5222 12.181C15.5895 13.7174 14.6792 15.194 13.1652 15.7735C11.727 16.3239 10.0167 15.937 8.96536 14.7773C8.66909 14.4568 8.72235 13.9156 9.04293 13.6194C9.36346 13.3231 9.90457 13.3764 10.2008 13.6969C10.7933 14.338 11.7531 14.5782 12.5858 14.2595C13.4185 13.9408 13.9727 13.1212 13.8811 12.2016C13.8876 11.7652 14.2549 11.3642 14.6913 11.3707C15.1278 11.3773 15.3661 11.5464 15.5109 11.9249Z" fill="#999999"/>
<path d="M23.173 8.81754C23.202 8.89323 23.231 8.96892 23.1844 9.07357C23.2517 10.61 22.3413 12.0866 20.8275 12.666C19.389 13.2166 17.6789 12.8297 16.6275 11.6699C16.3312 11.3494 16.3845 10.8083 16.705 10.512C17.0256 10.2157 17.5668 10.269 17.8628 10.5896C18.4556 11.2306 19.4153 11.4708 20.2481 11.152C21.0806 10.8334 21.6346 10.0139 21.543 9.09426C21.5497 8.65776 21.917 8.25682 22.3535 8.26332C22.7142 8.29889 23.0572 8.51475 23.173 8.81754Z" fill="#999999"/>
<rect x="1" y="1" width="34" height="34" rx="17" fill="#999999" fill-opacity="0.8"/>
<path d="M16.5 12.0117H19.488V23.9873H16.5V12.0117ZM12 16.5116H24V19.4994H12V16.5116Z" fill="#F3F5F8"/>
<rect x="1" y="1" width="34" height="34" rx="17" stroke="#999999" stroke-width="2"/>
</svg>
