<svg width="45" height="22" viewBox="0 0 45 22" fill="none" xmlns="http://www.w3.org/2000/svg">
<g clip-path="url(#clip0_1290_2375)">
<path d="M9.74995 11.0312C12.3827 11.0312 14.5642 8.6868 14.5642 5.8158C14.5642 2.98243 12.4078 0.738281 9.74995 0.738281C7.10463 0.738281 4.94824 3.02003 4.94824 5.82834C4.94824 8.69934 7.11716 11.0312 9.74995 11.0312ZM9.74995 9.13813C8.22043 9.13813 6.95418 7.7089 6.95418 5.82834C6.95418 4.01046 8.19535 2.63138 9.74995 2.63138C11.3045 2.63138 12.5583 3.98539 12.5583 5.8158C12.5583 7.68384 11.292 9.13813 9.74995 9.13813ZM3.21812 21.2615H16.2692C18.0872 21.2615 19.0274 20.6723 19.0274 19.3935C19.0274 16.51 15.68 12.3225 9.73742 12.3225C3.80737 12.3225 0.459961 16.51 0.459961 19.3935C0.459961 20.6723 1.38771 21.2615 3.21812 21.2615ZM2.72917 19.3685C2.54112 19.3685 2.4659 19.2932 2.4659 19.1427C2.4659 17.4878 4.8354 14.2157 9.73742 14.2157C14.6394 14.2157 17.009 17.4878 17.009 19.1427C17.009 19.2932 16.9337 19.3685 16.7582 19.3685H2.72917ZM35.6892 11.0939C38.322 11.0939 40.491 8.74949 40.491 5.87849C40.491 3.04511 38.3471 0.800967 35.6892 0.800967C33.0438 0.800967 30.875 3.08272 30.875 5.89103C30.875 8.76202 33.0438 11.0939 35.6892 11.0939ZM35.6892 9.20083C34.1472 9.20083 32.8809 7.7716 32.8809 5.89103C32.8809 4.07315 34.1346 2.69406 35.6892 2.69406C37.2313 2.69406 38.485 4.04808 38.485 5.87849C38.485 7.74652 37.2313 9.20083 35.6892 9.20083ZM29.1574 21.3242H42.1959C44.0264 21.3242 44.9541 20.7349 44.9541 19.4562C44.9541 16.5727 41.6193 12.3852 35.6767 12.3852C29.7341 12.3852 26.3992 16.5727 26.3992 19.4562C26.3992 20.7349 27.327 21.3242 29.1574 21.3242ZM28.6684 19.4311C28.4804 19.4311 28.4052 19.3558 28.4052 19.2054C28.4052 17.5505 30.7746 14.2783 35.6767 14.2783C40.5787 14.2783 42.9481 17.5505 42.9481 19.2054C42.9481 19.3558 42.8729 19.4311 42.685 19.4311H28.6684Z" fill="white"/>
<path d="M18.5635 11.1447C19.1528 11.1447 19.6417 10.6557 19.6417 10.0665C19.6417 9.47723 19.1528 8.98828 18.5635 8.98828C17.9743 8.98828 17.4854 9.47723 17.4854 10.0665C17.4854 10.6557 17.9743 11.1447 18.5635 11.1447ZM22.7258 11.1447C23.3151 11.1447 23.804 10.6557 23.804 10.0665C23.804 9.47723 23.3151 8.98828 22.7258 8.98828C22.1366 8.98828 21.6476 9.47723 21.6476 10.0665C21.6476 10.6557 22.1366 11.1447 22.7258 11.1447ZM26.8631 11.1447C27.4523 11.1447 27.9413 10.6557 27.9413 10.0665C27.9413 9.47723 27.4523 8.98828 26.8631 8.98828C26.2738 8.98828 25.7849 9.47723 25.7849 10.0665C25.7849 10.6557 26.2738 11.1447 26.8631 11.1447Z" fill="white"/>
</g>
<defs>
<clipPath id="clip0_1290_2375">
<rect width="44.4941" height="20.5984" fill="white" transform="translate(0.459961 0.738281)"/>
</clipPath>
</defs>
</svg>
