<svg width="15" height="16" viewBox="0 0 15 16" fill="none" xmlns="http://www.w3.org/2000/svg">
<path d="M14.5561 3.06169C15.1417 2.47603 15.1417 1.52491 14.5561 0.939247C13.9704 0.353584 13.0193 0.353584 12.4336 0.939247L7.5 5.87756L2.56169 0.943932C1.97603 0.358269 1.02491 0.358269 0.439247 0.943932C-0.146416 1.5296 -0.146416 2.48071 0.439247 3.06637L5.37756 8L0.443933 12.9383C-0.14173 13.524 -0.14173 14.4751 0.443933 15.0608C1.0296 15.6464 1.98071 15.6464 2.56638 15.0608L7.5 10.1224L12.4383 15.0561C13.024 15.6417 13.9751 15.6417 14.5608 15.0561C15.1464 14.4704 15.1464 13.5193 14.5608 12.9336L9.62244 8L14.5561 3.06169Z" fill="#ACACAC"/>
</svg>
